<?xml version="1.0" encoding="UTF-8" standalone="no"?>
<svg width="800" height="400" viewBox="0 0 800 400" xmlns="http://www.w3.org/2000/svg">
  <!-- Background -->
  <rect x="0" y="0" width="800" height="400" fill="#F5F5F5" rx="15" ry="15" />
  
  <!-- Welcome Screen -->
  <rect x="50" y="50" width="200" height="350" fill="#FFFFFF" stroke="#757575" stroke-width="2" rx="20" ry="20" />
  <rect x="50" y="50" width="200" height="30" fill="#0D4CD3" rx="20" ry="20" />
  <rect x="50" y="80" width="200" height="320" fill="#FFFFFF" rx="0" ry="0" />
  
  <!-- Welcome Screen Content -->
  <circle cx="150" cy="150" r="50" fill="#0D4CD3" />
  <path d="M150,115 C175,115 195,135 195,160 C195,173.5 187.5,185.5 176,192 L176,215 C176,216.7 174.7,218 173,218 L127,218 C125.3,218 124,216.7 124,215 L124,192 C112.5,185.5 105,173.5 105,160 C105,135 125,115 150,115 Z" fill="#FFFFFF" />
  <path d="M150,135 C165,135 178,145 183,160 M150,135 C135,135 122,145 117,160 M150,205 L150,180 M135,205 L135,185 M165,205 L165,185" stroke="#0D4CD3" stroke-width="3" fill="none" stroke-linecap="round" />
  
  <text x="150" y="250" font-family="Arial, sans-serif" font-size="18" fill="#212121" text-anchor="middle" font-weight="bold">MindTalks</text>
  <text x="150" y="275" font-family="Arial, sans-serif" font-size="12" fill="#757575" text-anchor="middle" width="180">Психологическая поддержка</text>
  <text x="150" y="295" font-family="Arial, sans-serif" font-size="12" fill="#757575" text-anchor="middle" width="180">для подростков</text>
  
  <rect x="75" y="325" width="150" height="40" fill="#0D4CD3" rx="20" ry="20" />
  <text x="150" y="350" font-family="Arial, sans-serif" font-size="14" fill="#FFFFFF" text-anchor="middle" font-weight="bold">Начать беседу</text>
  
  <!-- Chat Screen -->
  <rect x="300" y="50" width="200" height="350" fill="#FFFFFF" stroke="#757575" stroke-width="2" rx="20" ry="20" />
  <rect x="300" y="50" width="200" height="50" fill="#0D4CD3" rx="20" ry="20" />
  <rect x="300" y="100" width="200" height="300" fill="#F5F5F5" rx="0" ry="0" />
  
  <!-- Chat Screen Header -->
  <text x="400" y="80" font-family="Arial, sans-serif" font-size="14" fill="#FFFFFF" text-anchor="middle" font-weight="bold">Беседа с психологом</text>
  <circle cx="325" cy="75" r="10" fill="#FFFFFF" opacity="0.8" />
  <path d="M321,75 L329,75 M325,71 L325,79" stroke="#0D4CD3" stroke-width="2" />
  
  <!-- Chat Messages -->
  <rect x="340" y="120" width="150" height="40" fill="#E3F2FD" rx="10" ry="10" />
  <text x="350" y="140" font-family="Arial, sans-serif" font-size="10" fill="#212121">Привет, мне нужна помощь</text>
  <text x="350" y="155" font-family="Arial, sans-serif" font-size="8" fill="#757575">12:30</text>
  
  <rect x="310" y="170" width="150" height="60" fill="#FFFFFF" rx="10" ry="10" stroke="#DDDDDD" stroke-width="1" />
  <circle cx="325" cy="190" r="10" fill="#0D4CD3" />
  <text x="350" y="185" font-family="Arial, sans-serif" font-size="10" fill="#212121">Здравствуйте! Я готов </text>
  <text x="350" y="200" font-family="Arial, sans-serif" font-size="10" fill="#212121">помочь вам. Расскажите </text>
  <text x="350" y="215" font-family="Arial, sans-serif" font-size="10" fill="#212121">подробнее о проблеме.</text>
  <text x="325" y="235" font-family="Arial, sans-serif" font-size="8" fill="#757575">12:31</text>
  
  <rect x="340" y="250" width="150" height="40" fill="#E3F2FD" rx="10" ry="10" />
  <text x="350" y="270" font-family="Arial, sans-serif" font-size="10" fill="#212121">У меня проблемы в школе</text>
  <text x="350" y="285" font-family="Arial, sans-serif" font-size="8" fill="#757575">12:32</text>
  
  <!-- Input Box -->
  <rect x="310" y="330" width="180" height="40" fill="#FFFFFF" rx="20" ry="20" stroke="#DDDDDD" stroke-width="1" />
  <text x="345" y="355" font-family="Arial, sans-serif" font-size="12" fill="#9E9E9E">Введите сообщение...</text>
  <circle cx="470" cy="350" r="15" fill="#0D4CD3" />
  <path d="M465,350 L475,350 M470,345 L475,350 L470,355" stroke="#FFFFFF" stroke-width="2" />
  
  <!-- History Screen -->
  <rect x="550" y="50" width="200" height="350" fill="#FFFFFF" stroke="#757575" stroke-width="2" rx="20" ry="20" />
  <rect x="550" y="50" width="200" height="50" fill="#0D4CD3" rx="20" ry="20" />
  <rect x="550" y="100" width="200" height="300" fill="#FFFFFF" rx="0" ry="0" />
  
  <!-- History Screen Header -->
  <text x="650" y="80" font-family="Arial, sans-serif" font-size="14" fill="#FFFFFF" text-anchor="middle" font-weight="bold">История диалогов</text>
  <circle cx="575" cy="75" r="10" fill="#FFFFFF" opacity="0.8" />
  <path d="M571,75 L579,75 M575,71 L575,79" stroke="#0D4CD3" stroke-width="2" />
  
  <!-- History Items -->
  <rect x="570" y="120" width="160" height="60" fill="#FFFFFF" rx="5" ry="5" stroke="#DDDDDD" stroke-width="1" />
  <text x="590" y="140" font-family="Arial, sans-serif" font-size="12" fill="#212121" font-weight="bold">Проблемы в школе</text>
  <text x="590" y="160" font-family="Arial, sans-serif" font-size="10" fill="#757575">12 мая 2023 - 3 сообщения</text>
  <circle cx="700" cy="140" r="15" fill="#0D4CD3" opacity="0.1" />
  <path d="M695,140 L705,140 M700,135 L705,140 L700,145" stroke="#0D4CD3" stroke-width="2" />
  
  <rect x="570" y="190" width="160" height="60" fill="#FFFFFF" rx="5" ry="5" stroke="#DDDDDD" stroke-width="1" />
  <text x="590" y="210" font-family="Arial, sans-serif" font-size="12" fill="#212121" font-weight="bold">Отношения с друзьями</text>
  <text x="590" y="230" font-family="Arial, sans-serif" font-size="10" fill="#757575">10 мая 2023 - 8 сообщений</text>
  <circle cx="700" cy="210" r="15" fill="#0D4CD3" opacity="0.1" />
  <path d="M695,210 L705,210 M700,205 L705,210 L700,215" stroke="#0D4CD3" stroke-width="2" />
  
  <rect x="570" y="260" width="160" height="60" fill="#FFFFFF" rx="5" ry="5" stroke="#DDDDDD" stroke-width="1" />
  <text x="590" y="280" font-family="Arial, sans-serif" font-size="12" fill="#212121" font-weight="bold">Проблемы с родителями</text>
  <text x="590" y="300" font-family="Arial, sans-serif" font-size="10" fill="#757575">5 мая 2023 - 12 сообщений</text>
  <circle cx="700" cy="280" r="15" fill="#0D4CD3" opacity="0.1" />
  <path d="M695,280 L705,280 M700,275 L705,280 L700,285" stroke="#0D4CD3" stroke-width="2" />
  
  <!-- New Chat Button -->
  <circle cx="650" cy="355" r="25" fill="#0D4CD3" />
  <path d="M640,355 L660,355 M650,345 L650,365" stroke="#FFFFFF" stroke-width="3" />
  
  <!-- Title -->
  <text x="400" y="20" font-family="Arial, sans-serif" font-size="16" fill="#212121" text-anchor="middle" font-weight="bold">Экраны MindTalks</text>
</svg> 