<?xml version="1.0" encoding="UTF-8" standalone="no"?>
<svg width="200" height="200" viewBox="0 0 200 200" xmlns="http://www.w3.org/2000/svg">
  <!-- Background Circle -->
  <circle cx="100" cy="100" r="90" fill="#0D4CD3" />
  
  <!-- Brain Icon -->
  <path d="M100,45 C125,45 145,65 145,90 C145,103.5 137.5,115.5 126,122 L126,145 C126,146.7 124.7,148 123,148 L77,148 C75.3,148 74,146.7 74,145 L74,122 C62.5,115.5 55,103.5 55,90 C55,65 75,45 100,45 Z" fill="#FFFFFF" />
  
  <!-- Brain Details -->
  <path d="M100,65 C115,65 128,75 133,90 M100,65 C85,65 72,75 67,90 M100,135 L100,110 M85,135 L85,115 M115,135 L115,115" stroke="#0D4CD3" stroke-width="5" fill="none" stroke-linecap="round" />
  
  <!-- Speech Bubble -->
  <path d="M160,100 C160,127.5 135,150 100,150 C86,150 73.5,146.5 63.5,140.5 L40,155 L47.5,130 C42,121 40,110.5 40,100 C40,72.5 65,50 100,50 C135,50 160,72.5 160,100 Z" fill="none" stroke="#FFFFFF" stroke-width="5" stroke-linecap="round" />
  
  <!-- Text -->
  <text x="100" y="185" font-family="Arial, sans-serif" font-size="18" fill="#FFFFFF" text-anchor="middle" font-weight="bold">MindTalks</text>
</svg> 