<?xml version="1.0" encoding="UTF-8" standalone="no"?>
<svg width="300" height="600" viewBox="0 0 300 600" xmlns="http://www.w3.org/2000/svg">
  <!-- Phone Outline -->
  <rect x="10" y="10" width="280" height="580" fill="#FFFFFF" stroke="#757575" stroke-width="2" rx="20" ry="20" />
  <rect x="10" y="10" width="280" height="30" fill="#0D4CD3" rx="20" ry="20" />
  <rect x="10" y="40" width="280" height="550" fill="#FFFFFF" rx="0" ry="0" />
  
  <!-- Status Bar -->
  <text x="30" y="30" font-family="Arial, sans-serif" font-size="12" fill="#FFFFFF">12:30</text>
  <text x="250" y="30" font-family="Arial, sans-serif" font-size="12" fill="#FFFFFF">100%</text>
  
  <!-- Logo -->
  <circle cx="150" cy="150" r="70" fill="#0D4CD3" />
  <path d="M150,100 C185,100 215,130 215,165 C215,183.5 205,200 190,210 L190,240 C190,242 188,244 186,244 L114,244 C112,244 110,242 110,240 L110,210 C95,200 85,183.5 85,165 C85,130 115,100 150,100 Z" fill="#FFFFFF" />
  <path d="M150,130 C170,130 188,145 195,165 M150,130 C130,130 112,145 105,165 M150,225 L150,190 M130,225 L130,195 M170,225 L170,195" stroke="#0D4CD3" stroke-width="4" fill="none" stroke-linecap="round" />
  
  <!-- App Name -->
  <text x="150" y="300" font-family="Arial, sans-serif" font-size="28" fill="#212121" text-anchor="middle" font-weight="bold">MindTalks</text>
  
  <!-- Description -->
  <text x="150" y="340" font-family="Arial, sans-serif" font-size="16" fill="#757575" text-anchor="middle">Психологическая поддержка</text>
  <text x="150" y="365" font-family="Arial, sans-serif" font-size="16" fill="#757575" text-anchor="middle">для подростков</text>
  
  <!-- Begin Chat Button -->
  <rect x="40" y="420" width="220" height="50" fill="#0D4CD3" rx="25" ry="25" />
  <text x="150" y="452" font-family="Arial, sans-serif" font-size="18" fill="#FFFFFF" text-anchor="middle" font-weight="bold">Начать беседу</text>
  
  <!-- View History Button -->
  <rect x="40" y="490" width="220" height="50" fill="#FFFFFF" stroke="#0D4CD3" stroke-width="2" rx="25" ry="25" />
  <text x="150" y="522" font-family="Arial, sans-serif" font-size="18" fill="#0D4CD3" text-anchor="middle" font-weight="bold">История диалогов</text>
  
  <!-- Footer -->
  <text x="150" y="570" font-family="Arial, sans-serif" font-size="12" fill="#9E9E9E" text-anchor="middle">© 2023 MindTalks</text>
</svg> 